<svg width="420" height="167" viewBox="0 0 420 167" fill="none" xmlns="http://www.w3.org/2000/svg">
<path d="M92.84 49.72C105.64 49.72 115.56 60.28 115.56 74.52V115H91.88V79C91.88 74.36 88.52 70.36 83.4 70.36C77.64 70.36 73.48 75.48 73.48 80.44V115H49.8V7.96H73.48V60.28C78.12 53.72 84.84 49.72 92.84 49.72Z" fill="white"/>
<path d="M115.56 115V116H116.56V115H115.56ZM91.88 115H90.88V116H91.88V115ZM73.48 115V116H74.48V115H73.48ZM49.8 115H48.8V116H49.8V115ZM49.8 7.96V6.96H48.8V7.96H49.8ZM73.48 7.96H74.48V6.96H73.48V7.96ZM73.48 60.28H72.48V63.4255L74.2964 60.8575L73.48 60.28ZM92.84 50.72C105.014 50.72 114.56 60.7554 114.56 74.52H116.56C116.56 59.8046 106.266 48.72 92.84 48.72V50.72ZM114.56 74.52V115H116.56V74.52H114.56ZM115.56 114H91.88V116H115.56V114ZM92.88 115V79H90.88V115H92.88ZM92.88 79C92.88 73.8703 89.1329 69.36 83.4 69.36V71.36C87.9071 71.36 90.88 74.8497 90.88 79H92.88ZM83.4 69.36C77.017 69.36 72.48 75.0012 72.48 80.44H74.48C74.48 75.9588 78.263 71.36 83.4 71.36V69.36ZM72.48 80.44V115H74.48V80.44H72.48ZM73.48 114H49.8V116H73.48V114ZM50.8 115V7.96H48.8V115H50.8ZM49.8 8.96H73.48V6.96H49.8V8.96ZM72.48 7.96V60.28H74.48V7.96H72.48ZM74.2964 60.8575C78.7772 54.5226 85.2106 50.72 92.84 50.72V48.72C84.4694 48.72 77.4628 52.9174 72.6636 59.7025L74.2964 60.8575Z" fill="#2C2C2C"/>
<path d="M30.88 116.28C19.2 116.28 6.56 111.16 2.4 100.6L19.04 91.96C22.56 97.56 26.72 98.2 29.12 98.2C31.84 98.2 33.44 97.24 33.44 95.64C33.44 94.2 32.16 92.76 26.88 90.84C21.12 88.6 6.24 84.6 6.24 71C6.24 60.28 15.36 49.72 31.68 49.72C40.8 49.72 48.48 52.92 54.08 57.56L43.68 71.16C41.44 69.08 37.6 66.68 33.44 66.68C30.4 66.68 29.44 67.96 29.44 69.08C29.44 70.52 31.2 71.16 34.72 72.6C44 76.28 55.2 81.56 55.2 94.84C55.2 107 46.4 116.28 30.88 116.28Z" fill="white"/>
<path d="M2.4 100.6L1.93918 99.7125L1.13921 100.128L1.46959 100.967L2.4 100.6ZM19.04 91.96L19.8866 91.4278L19.3965 90.6481L18.5792 91.0725L19.04 91.96ZM26.88 90.84L26.5176 91.772L26.5279 91.776L26.5383 91.7798L26.88 90.84ZM54.08 57.56L54.8744 58.1674L55.4585 57.4035L54.718 56.79L54.08 57.56ZM43.68 71.16L42.9995 71.8928L43.8059 72.6416L44.4744 71.7674L43.68 71.16ZM34.72 72.6L34.3413 73.5256L34.3514 73.5296L34.72 72.6ZM30.88 115.28C19.3828 115.28 7.27078 110.236 3.33041 100.233L1.46959 100.967C5.84922 112.084 19.0172 117.28 30.88 117.28V115.28ZM2.86082 101.487L19.5008 92.8475L18.5792 91.0725L1.93918 99.7125L2.86082 101.487ZM18.1934 92.4922C20.0433 95.4353 22.0998 97.131 24.065 98.0804C26.0243 99.027 27.8268 99.2 29.12 99.2V97.2C28.0132 97.2 26.5357 97.053 24.935 96.2796C23.3402 95.509 21.5567 94.0847 19.8866 91.4278L18.1934 92.4922ZM29.12 99.2C30.5754 99.2 31.8572 98.9467 32.8111 98.3795C33.8117 97.7846 34.44 96.8395 34.44 95.64H32.44C32.44 96.0405 32.2683 96.3755 31.7889 96.6605C31.2628 96.9733 30.3846 97.2 29.12 97.2V99.2ZM34.44 95.64C34.44 94.5395 33.9147 93.5544 32.7627 92.6376C31.6532 91.7545 29.8895 90.8703 27.2217 89.9002L26.5383 91.7798C29.1505 92.7297 30.6668 93.5255 31.5173 94.2024C32.3253 94.8456 32.44 95.3005 32.44 95.64H34.44ZM27.2424 89.908C24.2671 88.7509 19.2765 87.2486 14.9573 84.3497C10.6876 81.484 7.24 77.3563 7.24 71H5.24C5.24 78.2437 9.23242 82.916 13.8427 86.0103C18.4035 89.0714 23.7329 90.6891 26.5176 91.772L27.2424 89.908ZM7.24 71C7.24 60.9079 15.8335 50.72 31.68 50.72V48.72C14.8865 48.72 5.24 59.6521 5.24 71H7.24ZM31.68 50.72C40.5589 50.72 48.015 53.8334 53.442 58.33L54.718 56.79C48.945 52.0066 41.0411 48.72 31.68 48.72V50.72ZM53.2856 56.9526L42.8856 70.5526L44.4744 71.7674L54.8744 58.1674L53.2856 56.9526ZM44.3605 70.4272C42.0283 68.2617 37.9556 65.68 33.44 65.68V67.68C37.2444 67.68 40.8517 69.8983 42.9995 71.8928L44.3605 70.4272ZM33.44 65.68C31.7964 65.68 30.5575 66.0238 29.7042 66.6569C28.8225 67.311 28.44 68.2127 28.44 69.08H30.44C30.44 68.8273 30.5375 68.529 30.8958 68.2631C31.2825 67.9762 32.0436 67.68 33.44 67.68V65.68ZM28.44 69.08C28.44 70.3402 29.272 71.1223 30.2513 71.7009C31.2119 72.2686 32.6267 72.8241 34.3414 73.5256L35.0986 71.6745C33.2933 70.9359 32.0681 70.4514 31.2687 69.9791C30.488 69.5177 30.44 69.2598 30.44 69.08H28.44ZM34.3514 73.5296C38.9897 75.3689 43.9652 77.5574 47.7842 80.8749C51.5609 84.1557 54.2 88.5334 54.2 94.84H56.2C56.2 87.8666 53.2391 82.9643 49.0958 79.3651C44.9948 75.8026 39.7303 73.5111 35.0886 71.6704L34.3514 73.5296ZM54.2 94.84C54.2 100.67 52.0959 105.755 48.18 109.387C44.26 113.023 38.4402 115.28 30.88 115.28V117.28C38.8398 117.28 45.18 114.897 49.54 110.853C53.9041 106.805 56.2 101.17 56.2 94.84H54.2Z" fill="#2C2C2C"/>
<path d="M183.28 82.84L183.12 86.84H135.44C135.92 95.16 138.96 99.64 147.6 99.64C154.16 99.64 158.32 97.24 159.44 93.08H182.16C179.28 107 167.28 116.28 147.76 116.28C125.2 116.28 110.32 103.48 110.32 83C110.32 62.36 125.36 49.56 147.12 49.56C169.04 49.56 183.12 62.36 183.28 82.84ZM147.6 67C141.2 67 138 69.4 136.4 73.72H158.8C157.04 69.4 153.68 67 147.6 67Z" fill="white"/>
<path d="M183.28 82.84L184.279 82.88L184.28 82.8561L184.28 82.8322L183.28 82.84ZM183.12 86.84V87.84H184.081L184.119 86.88L183.12 86.84ZM135.44 86.84V85.84H134.381L134.442 86.8976L135.44 86.84ZM159.44 93.08V92.08H158.674L158.474 92.82L159.44 93.08ZM182.16 93.08L183.139 93.2826L183.388 92.08H182.16V93.08ZM136.4 73.72L135.462 73.3727L134.963 74.72H136.4V73.72ZM158.8 73.72V74.72H160.287L159.726 73.3427L158.8 73.72ZM182.281 82.8L182.121 86.8L184.119 86.88L184.279 82.88L182.281 82.8ZM183.12 85.84H135.44V87.84H183.12V85.84ZM134.442 86.8976C134.686 91.1339 135.587 94.6085 137.709 97.0205C139.865 99.4717 143.111 100.64 147.6 100.64V98.64C143.449 98.64 140.855 97.5683 139.211 95.6995C137.533 93.7915 136.674 90.8661 136.438 86.7824L134.442 86.8976ZM147.6 100.64C154.35 100.64 159.111 98.1467 160.406 93.34L158.474 92.82C157.528 96.3333 153.97 98.64 147.6 98.64V100.64ZM159.44 94.08H182.16V92.08H159.44V94.08ZM181.181 92.8774C179.791 99.5967 176.21 105.172 170.627 109.081C165.032 112.997 157.366 115.28 147.76 115.28V117.28C157.674 117.28 165.768 114.923 171.773 110.719C177.79 106.508 181.649 100.483 183.139 93.2826L181.181 92.8774ZM147.76 115.28C136.664 115.28 127.558 112.133 121.241 106.57C114.938 101.018 111.32 92.9822 111.32 83H109.32C109.32 93.4978 113.142 102.102 119.919 108.07C126.682 114.027 136.296 117.28 147.76 117.28V115.28ZM111.32 83C111.32 72.9382 114.978 64.8594 121.226 59.2863C127.486 53.7022 136.432 50.56 147.12 50.56V48.56C136.048 48.56 126.594 51.8178 119.894 57.7937C113.182 63.7806 109.32 72.4218 109.32 83H111.32ZM147.12 50.56C157.888 50.56 166.627 53.7018 172.684 59.257C178.732 64.8041 182.202 72.8455 182.28 82.8478L184.28 82.8322C184.198 72.3545 180.548 63.7559 174.036 57.783C167.533 51.8182 158.272 48.56 147.12 48.56V50.56ZM147.6 66C144.283 66 141.677 66.6212 139.665 67.8952C137.639 69.1784 136.32 71.058 135.462 73.3727L137.338 74.0673C138.08 72.062 139.161 70.5816 140.735 69.5848C142.323 68.5788 144.517 68 147.6 68V66ZM136.4 74.72H158.8V72.72H136.4V74.72ZM159.726 73.3427C158.784 71.0299 157.383 69.1656 155.351 67.8925C153.328 66.6253 150.768 66 147.6 66V68C150.512 68 152.672 68.5747 154.289 69.5875C155.897 70.5945 157.056 72.0901 157.874 74.0973L159.726 73.3427Z" fill="#2C2C2C"/>
<path d="M217.8 115V7.96H241.48V115H217.8Z" fill="white"/>
<path d="M217.8 115H216.8V116H217.8V115ZM217.8 7.96V6.96H216.8V7.96H217.8ZM241.48 7.96H242.48V6.96H241.48V7.96ZM241.48 115V116H242.48V115H241.48ZM218.8 115V7.96H216.8V115H218.8ZM217.8 8.96H241.48V6.96H217.8V8.96ZM240.48 7.96V115H242.48V7.96H240.48ZM241.48 114H217.8V116H241.48V114Z" fill="#2C2C2C"/>
<path d="M218.44 49.72C220.36 49.72 222.44 50.04 223.88 50.52V70.36H217.48C208.04 70.36 201.48 75.48 201.48 85.56V115H177.8V51H201.48V59.96C205.48 53.56 211.4 49.72 218.44 49.72Z" fill="white"/>
<path d="M223.88 50.52H224.88V49.7992L224.196 49.5713L223.88 50.52ZM223.88 70.36V71.36H224.88V70.36H223.88ZM201.48 115V116H202.48V115H201.48ZM177.8 115H176.8V116H177.8V115ZM177.8 51V50H176.8V51H177.8ZM201.48 51H202.48V50H201.48V51ZM201.48 59.96H200.48V63.4468L202.328 60.49L201.48 59.96ZM218.44 50.72C220.271 50.72 222.242 51.028 223.564 51.4687L224.196 49.5713C222.638 49.052 220.449 48.72 218.44 48.72V50.72ZM222.88 50.52V70.36H224.88V50.52H222.88ZM223.88 69.36H217.48V71.36H223.88V69.36ZM217.48 69.36C212.588 69.36 208.324 70.6873 205.271 73.437C202.202 76.201 200.48 80.2924 200.48 85.56H202.48C202.48 80.7476 204.038 77.239 206.609 74.923C209.196 72.5927 212.932 71.36 217.48 71.36V69.36ZM200.48 85.56V115H202.48V85.56H200.48ZM201.48 114H177.8V116H201.48V114ZM178.8 115V51H176.8V115H178.8ZM177.8 52H201.48V50H177.8V52ZM200.48 51V59.96H202.48V51H200.48ZM202.328 60.49C206.184 54.3211 211.811 50.72 218.44 50.72V48.72C210.989 48.72 204.776 52.7989 200.632 59.43L202.328 60.49Z" fill="#2C2C2C"/>
<path d="M318.8 116.28C296.24 116.28 282.32 102.36 282.32 83C282.32 63.64 296.24 49.72 318.8 49.72C339.28 49.72 352.72 61.4 354.8 78.2H330.64C328.88 73.56 324.4 70.52 318.8 70.36C311.28 70.52 306 75.8 306 83C306 90.2 311.28 95.48 318.8 95.64C324.4 95.48 328.88 92.44 330.64 87.8H354.8C352.72 104.6 339.28 116.28 318.8 116.28Z" fill="white"/>
<path d="M354.8 78.2V79.2H355.931L355.792 78.0771L354.8 78.2ZM330.64 78.2L329.705 78.5547L329.95 79.2H330.64V78.2ZM318.8 70.36L318.829 69.3604L318.804 69.3597L318.779 69.3602L318.8 70.36ZM318.8 95.64L318.779 96.6398L318.804 96.6403L318.829 96.6396L318.8 95.64ZM330.64 87.8V86.8H329.95L329.705 87.4453L330.64 87.8ZM354.8 87.8L355.792 87.9229L355.931 86.8H354.8V87.8ZM318.8 115.28C307.727 115.28 298.866 111.867 292.784 106.17C286.705 100.477 283.32 92.4311 283.32 83H281.32C281.32 92.9289 284.895 101.523 291.416 107.63C297.934 113.733 307.313 117.28 318.8 117.28V115.28ZM283.32 83C283.32 73.5689 286.705 65.5227 292.784 59.8299C298.866 54.1332 307.727 50.72 318.8 50.72V48.72C307.313 48.72 297.934 52.2668 291.416 58.3701C284.895 64.4773 281.32 73.0711 281.32 83H283.32ZM318.8 50.72C328.849 50.72 337.096 53.5838 343.07 58.4362C349.038 63.2848 352.798 70.1654 353.808 78.3229L355.792 78.0771C354.722 69.4346 350.722 62.0752 344.33 56.8838C337.944 51.6962 329.231 48.72 318.8 48.72V50.72ZM354.8 77.2H330.64V79.2H354.8V77.2ZM331.575 77.8453C329.654 72.7821 324.784 69.5305 318.829 69.3604L318.771 71.3596C324.016 71.5095 328.106 74.3379 329.705 78.5547L331.575 77.8453ZM318.779 69.3602C310.743 69.5312 305 75.2281 305 83H307C307 76.3719 311.817 71.5088 318.821 71.3598L318.779 69.3602ZM305 83C305 90.7719 310.743 96.4688 318.779 96.6398L318.821 94.6402C311.817 94.4912 307 89.6281 307 83H305ZM318.829 96.6396C324.784 96.4695 329.654 93.2179 331.575 88.1547L329.705 87.4453C328.106 91.6621 324.016 94.4905 318.771 94.6404L318.829 96.6396ZM330.64 88.8H354.8V86.8H330.64V88.8ZM353.808 87.6771C352.798 95.8346 349.038 102.715 343.07 107.564C337.096 112.416 328.849 115.28 318.8 115.28V117.28C329.231 117.28 337.944 114.304 344.33 109.116C350.722 103.925 354.722 96.5654 355.792 87.9229L353.808 87.6771Z" fill="#2C2C2C"/>
<path d="M419.52 115H389.12L369.44 88.28V115H345.76V7.96H369.44V72.12L389.44 51H417.44L389.92 80.12L419.52 115Z" fill="white"/>
<path d="M419.52 115V116H421.68L420.282 114.353L419.52 115ZM389.12 115L388.315 115.593L388.615 116H389.12V115ZM369.44 88.28L370.245 87.687L368.44 85.236V88.28H369.44ZM369.44 115V116H370.44V115H369.44ZM345.76 115H344.76V116H345.76V115ZM345.76 7.96V6.96H344.76V7.96H345.76ZM369.44 7.96H370.44V6.96H369.44V7.96ZM369.44 72.12H368.44V74.6304L370.166 72.8076L369.44 72.12ZM389.44 51V50H389.01L388.714 50.3124L389.44 51ZM417.44 51L418.167 51.6869L419.761 50H417.44V51ZM389.92 80.12L389.193 79.4331L388.578 80.0841L389.158 80.767L389.92 80.12ZM419.52 114H389.12V116H419.52V114ZM389.925 114.407L370.245 87.687L368.635 88.873L388.315 115.593L389.925 114.407ZM368.44 88.28V115H370.44V88.28H368.44ZM369.44 114H345.76V116H369.44V114ZM346.76 115V7.96H344.76V115H346.76ZM345.76 8.96H369.44V6.96H345.76V8.96ZM368.44 7.96V72.12H370.44V7.96H368.44ZM370.166 72.8076L390.166 51.6876L388.714 50.3124L368.714 71.4324L370.166 72.8076ZM389.44 52H417.44V50H389.44V52ZM416.713 50.3131L389.193 79.4331L390.647 80.8069L418.167 51.6869L416.713 50.3131ZM389.158 80.767L418.758 115.647L420.282 114.353L390.682 79.473L389.158 80.767Z" fill="#2C2C2C"/>
<rect x="208.506" y="157.343" width="61.9992" height="13" transform="rotate(-53.6657 208.506 157.343)" fill="white" stroke="#2C2C2C" stroke-width="2"/>
<mask id="path-16-outside-1_102_21" maskUnits="userSpaceOnUse" x="226" y="47" width="81" height="81" fill="black">
<rect fill="white" x="226" y="47" width="81" height="81"/>
<path fill-rule="evenodd" clip-rule="evenodd" d="M266.5 126C287.763 126 305 108.763 305 87.5C305 66.237 287.763 49 266.5 49C245.237 49 228 66.237 228 87.5C228 108.763 245.237 126 266.5 126ZM266.5 112C280.031 112 291 101.031 291 87.5C291 73.969 280.031 63 266.5 63C252.969 63 242 73.969 242 87.5C242 101.031 252.969 112 266.5 112Z"/>
</mask>
<path fill-rule="evenodd" clip-rule="evenodd" d="M266.5 126C287.763 126 305 108.763 305 87.5C305 66.237 287.763 49 266.5 49C245.237 49 228 66.237 228 87.5C228 108.763 245.237 126 266.5 126ZM266.5 112C280.031 112 291 101.031 291 87.5C291 73.969 280.031 63 266.5 63C252.969 63 242 73.969 242 87.5C242 101.031 252.969 112 266.5 112Z" fill="white"/>
<path d="M303 87.5C303 107.658 286.658 124 266.5 124V128C288.868 128 307 109.868 307 87.5H303ZM266.5 51C286.658 51 303 67.3416 303 87.5H307C307 65.1325 288.868 47 266.5 47V51ZM230 87.5C230 67.3416 246.342 51 266.5 51V47C244.132 47 226 65.1325 226 87.5H230ZM266.5 124C246.342 124 230 107.658 230 87.5H226C226 109.868 244.132 128 266.5 128V124ZM289 87.5C289 99.9264 278.926 110 266.5 110V114C281.136 114 293 102.136 293 87.5H289ZM266.5 65C278.926 65 289 75.0736 289 87.5H293C293 72.8645 281.136 61 266.5 61V65ZM244 87.5C244 75.0736 254.074 65 266.5 65V61C251.864 61 240 72.8645 240 87.5H244ZM266.5 110C254.074 110 244 99.9264 244 87.5H240C240 102.136 251.864 114 266.5 114V110Z" fill="#2C2C2C" mask="url(#path-16-outside-1_102_21)"/>
<circle cx="266.5" cy="87.5" r="24.5" fill="#99D3E6" fill-opacity="0.36"/>
<path d="M303.36 133V136.3H300.63V145H296.16V136.3H294.15V133H296.16V129.82C296.16 127.06 298.5 124.93 301.26 124.93C302.16 124.93 303 125.11 303.3 125.32V128.77H301.83C301.08 128.77 300.63 129.37 300.63 130.33V133H303.36ZM310.955 145.24C306.725 145.24 304.115 142.63 304.115 139C304.115 135.37 306.725 132.76 310.955 132.76C315.155 132.76 317.765 135.37 317.765 139C317.765 142.63 315.155 145.24 310.955 145.24ZM310.955 141.37C312.335 141.34 313.325 140.38 313.325 139C313.325 137.62 312.335 136.66 310.955 136.63C309.545 136.66 308.555 137.62 308.555 139C308.555 140.38 309.545 141.34 310.955 141.37ZM327.856 132.76C328.216 132.76 328.606 132.82 328.876 132.91V136.63H327.676C325.906 136.63 324.676 137.59 324.676 139.48V145H320.236V133H324.676V134.68C325.426 133.48 326.536 132.76 327.856 132.76ZM348.89 130.99H342.32V134.02H347.87V137.98H342.32V145H337.73V127H348.89V130.99ZM350.752 145V124.93H355.192V145H350.752ZM364.246 145.24C360.316 145.24 358.246 143.32 358.246 140.29V133H362.716V139.72C362.716 140.65 363.376 141.37 364.246 141.37C365.146 141.37 365.836 140.65 365.836 139.72V133H370.276V140.29C370.276 143.32 368.206 145.24 364.246 145.24ZM381.139 136.3H378.379V139.84C378.379 140.8 378.859 141.4 379.609 141.4H381.079V144.85C380.779 145.06 379.909 145.24 379.039 145.24C376.279 145.24 373.939 143.11 373.939 140.38V136.3H371.929V133H373.939V128.59H378.379V133H381.139V136.3ZM391.006 136.3H388.246V139.84C388.246 140.8 388.726 141.4 389.476 141.4H390.946V144.85C390.646 145.06 389.776 145.24 388.906 145.24C386.146 145.24 383.806 143.11 383.806 140.38V136.3H381.796V133H383.806V128.59H388.246V133H391.006V136.3ZM405.943 138.97L405.913 139.72H396.973C397.063 141.28 397.633 142.12 399.253 142.12C400.483 142.12 401.263 141.67 401.473 140.89H405.733C405.193 143.5 402.943 145.24 399.283 145.24C395.053 145.24 392.263 142.84 392.263 139C392.263 135.13 395.083 132.73 399.163 132.73C403.273 132.73 405.913 135.13 405.943 138.97ZM399.253 136C398.053 136 397.453 136.45 397.153 137.26H401.353C401.023 136.45 400.393 136 399.253 136ZM416.075 132.76C416.435 132.76 416.825 132.82 417.095 132.91V136.63H415.895C414.125 136.63 412.895 137.59 412.895 139.48V145H408.455V133H412.895V134.68C413.645 133.48 414.755 132.76 416.075 132.76Z" fill="white"/>
<path d="M303.36 133H303.86V132.5H303.36V133ZM303.36 136.3V136.8H303.86V136.3H303.36ZM300.63 136.3V135.8H300.13V136.3H300.63ZM300.63 145V145.5H301.13V145H300.63ZM296.16 145H295.66V145.5H296.16V145ZM296.16 136.3H296.66V135.8H296.16V136.3ZM294.15 136.3H293.65V136.8H294.15V136.3ZM294.15 133V132.5H293.65V133H294.15ZM296.16 133V133.5H296.66V133H296.16ZM303.3 125.32H303.8V125.06L303.587 124.91L303.3 125.32ZM303.3 128.77V129.27H303.8V128.77H303.3ZM300.63 133H300.13V133.5H300.63V133ZM302.86 133V136.3H303.86V133H302.86ZM303.36 135.8H300.63V136.8H303.36V135.8ZM300.13 136.3V145H301.13V136.3H300.13ZM300.63 144.5H296.16V145.5H300.63V144.5ZM296.66 145V136.3H295.66V145H296.66ZM296.16 135.8H294.15V136.8H296.16V135.8ZM294.65 136.3V133H293.65V136.3H294.65ZM294.15 133.5H296.16V132.5H294.15V133.5ZM296.66 133V129.82H295.66V133H296.66ZM296.66 129.82C296.66 127.363 298.748 125.43 301.26 125.43V124.43C298.252 124.43 295.66 126.757 295.66 129.82H296.66ZM301.26 125.43C301.679 125.43 302.081 125.472 302.408 125.537C302.756 125.606 302.953 125.688 303.013 125.73L303.587 124.91C303.347 124.742 302.974 124.629 302.602 124.556C302.209 124.478 301.741 124.43 301.26 124.43V125.43ZM302.8 125.32V128.77H303.8V125.32H302.8ZM303.3 128.27H301.83V129.27H303.3V128.27ZM301.83 128.27C301.306 128.27 300.857 128.487 300.551 128.886C300.258 129.27 300.13 129.779 300.13 130.33H301.13C301.13 129.921 301.227 129.65 301.346 129.494C301.453 129.353 301.604 129.27 301.83 129.27V128.27ZM300.13 130.33V133H301.13V130.33H300.13ZM300.63 133.5H303.36V132.5H300.63V133.5ZM310.955 141.37L310.944 141.87L310.955 141.87L310.966 141.87L310.955 141.37ZM310.955 136.63L310.966 136.13L310.955 136.13L310.944 136.13L310.955 136.63ZM310.955 144.74C308.943 144.74 307.363 144.121 306.29 143.116C305.22 142.114 304.615 140.691 304.615 139H303.615C303.615 140.939 304.315 142.636 305.607 143.846C306.896 145.054 308.736 145.74 310.955 145.74V144.74ZM304.615 139C304.615 137.309 305.22 135.886 306.29 134.884C307.363 133.879 308.943 133.26 310.955 133.26V132.26C308.736 132.26 306.896 132.946 305.607 134.154C304.315 135.364 303.615 137.061 303.615 139H304.615ZM310.955 133.26C312.95 133.26 314.523 133.879 315.592 134.883C316.66 135.886 317.265 137.309 317.265 139H318.265C318.265 137.061 317.565 135.364 316.277 134.154C314.991 132.946 313.159 132.26 310.955 132.26V133.26ZM317.265 139C317.265 140.691 316.66 142.114 315.592 143.117C314.523 144.121 312.95 144.74 310.955 144.74V145.74C313.159 145.74 314.991 145.054 316.277 143.846C317.565 142.636 318.265 140.939 318.265 139H317.265ZM310.966 141.87C312.603 141.834 313.825 140.666 313.825 139H312.825C312.825 140.094 312.066 140.846 310.944 140.87L310.966 141.87ZM313.825 139C313.825 137.334 312.603 136.166 310.966 136.13L310.944 137.13C312.066 137.154 312.825 137.906 312.825 139H313.825ZM310.944 136.13C310.127 136.148 309.4 136.437 308.876 136.952C308.349 137.469 308.055 138.186 308.055 139H309.055C309.055 138.434 309.255 137.981 309.576 137.665C309.899 137.348 310.373 137.142 310.965 137.13L310.944 136.13ZM308.055 139C308.055 139.814 308.349 140.531 308.876 141.048C309.4 141.563 310.127 141.852 310.944 141.87L310.965 140.87C310.373 140.858 309.899 140.652 309.576 140.335C309.255 140.019 309.055 139.566 309.055 139H308.055ZM328.876 132.91H329.376V132.55L329.034 132.436L328.876 132.91ZM328.876 136.63V137.13H329.376V136.63H328.876ZM324.676 145V145.5H325.176V145H324.676ZM320.236 145H319.736V145.5H320.236V145ZM320.236 133V132.5H319.736V133H320.236ZM324.676 133H325.176V132.5H324.676V133ZM324.676 134.68H324.176V136.423L325.1 134.945L324.676 134.68ZM327.856 133.26C328.171 133.26 328.507 133.314 328.718 133.384L329.034 132.436C328.705 132.326 328.261 132.26 327.856 132.26V133.26ZM328.376 132.91V136.63H329.376V132.91H328.376ZM328.876 136.13H327.676V137.13H328.876V136.13ZM327.676 136.13C326.705 136.13 325.823 136.394 325.178 136.975C324.524 137.563 324.176 138.421 324.176 139.48H325.176C325.176 138.649 325.442 138.082 325.847 137.718C326.259 137.346 326.877 137.13 327.676 137.13V136.13ZM324.176 139.48V145H325.176V139.48H324.176ZM324.676 144.5H320.236V145.5H324.676V144.5ZM320.736 145V133H319.736V145H320.736ZM320.236 133.5H324.676V132.5H320.236V133.5ZM324.176 133V134.68H325.176V133H324.176ZM325.1 134.945C325.778 133.861 326.742 133.26 327.856 133.26V132.26C326.33 132.26 325.074 133.099 324.252 134.415L325.1 134.945ZM348.89 130.99V131.49H349.39V130.99H348.89ZM342.32 130.99V130.49H341.82V130.99H342.32ZM342.32 134.02H341.82V134.52H342.32V134.02ZM347.87 134.02H348.37V133.52H347.87V134.02ZM347.87 137.98V138.48H348.37V137.98H347.87ZM342.32 137.98V137.48H341.82V137.98H342.32ZM342.32 145V145.5H342.82V145H342.32ZM337.73 145H337.23V145.5H337.73V145ZM337.73 127V126.5H337.23V127H337.73ZM348.89 127H349.39V126.5H348.89V127ZM348.89 130.49H342.32V131.49H348.89V130.49ZM341.82 130.99V134.02H342.82V130.99H341.82ZM342.32 134.52H347.87V133.52H342.32V134.52ZM347.37 134.02V137.98H348.37V134.02H347.37ZM347.87 137.48H342.32V138.48H347.87V137.48ZM341.82 137.98V145H342.82V137.98H341.82ZM342.32 144.5H337.73V145.5H342.32V144.5ZM338.23 145V127H337.23V145H338.23ZM337.73 127.5H348.89V126.5H337.73V127.5ZM348.39 127V130.99H349.39V127H348.39ZM350.752 145H350.252V145.5H350.752V145ZM350.752 124.93V124.43H350.252V124.93H350.752ZM355.192 124.93H355.692V124.43H355.192V124.93ZM355.192 145V145.5H355.692V145H355.192ZM351.252 145V124.93H350.252V145H351.252ZM350.752 125.43H355.192V124.43H350.752V125.43ZM354.692 124.93V145H355.692V124.93H354.692ZM355.192 144.5H350.752V145.5H355.192V144.5ZM358.246 133V132.5H357.746V133H358.246ZM362.716 133H363.216V132.5H362.716V133ZM365.836 133V132.5H365.336V133H365.836ZM370.276 133H370.776V132.5H370.276V133ZM364.246 144.74C362.356 144.74 360.986 144.278 360.096 143.521C359.217 142.772 358.746 141.684 358.746 140.29H357.746C357.746 141.926 358.309 143.313 359.448 144.282C360.576 145.242 362.206 145.74 364.246 145.74V144.74ZM358.746 140.29V133H357.746V140.29H358.746ZM358.246 133.5H362.716V132.5H358.246V133.5ZM362.216 133V139.72H363.216V133H362.216ZM362.216 139.72C362.216 140.888 363.063 141.87 364.246 141.87V140.87C363.689 140.87 363.216 140.412 363.216 139.72H362.216ZM364.246 141.87C365.44 141.87 366.336 140.908 366.336 139.72H365.336C365.336 140.392 364.852 140.87 364.246 140.87V141.87ZM366.336 139.72V133H365.336V139.72H366.336ZM365.836 133.5H370.276V132.5H365.836V133.5ZM369.776 133V140.29H370.776V133H369.776ZM369.776 140.29C369.776 141.684 369.305 142.772 368.423 143.52C367.529 144.278 366.152 144.74 364.246 144.74V145.74C366.3 145.74 367.938 145.242 369.069 144.283C370.212 143.313 370.776 141.926 370.776 140.29H369.776ZM381.139 136.3V136.8H381.639V136.3H381.139ZM378.379 136.3V135.8H377.879V136.3H378.379ZM381.079 141.4H381.579V140.9H381.079V141.4ZM381.079 144.85L381.365 145.26L381.579 145.11V144.85H381.079ZM373.939 136.3H374.439V135.8H373.939V136.3ZM371.929 136.3H371.429V136.8H371.929V136.3ZM371.929 133V132.5H371.429V133H371.929ZM373.939 133V133.5H374.439V133H373.939ZM373.939 128.59V128.09H373.439V128.59H373.939ZM378.379 128.59H378.879V128.09H378.379V128.59ZM378.379 133H377.879V133.5H378.379V133ZM381.139 133H381.639V132.5H381.139V133ZM381.139 135.8H378.379V136.8H381.139V135.8ZM377.879 136.3V139.84H378.879V136.3H377.879ZM377.879 139.84C377.879 140.398 378.018 140.908 378.32 141.29C378.633 141.685 379.087 141.9 379.609 141.9V140.9C379.38 140.9 379.22 140.815 379.105 140.67C378.98 140.512 378.879 140.242 378.879 139.84H377.879ZM379.609 141.9H381.079V140.9H379.609V141.9ZM380.579 141.4V144.85H381.579V141.4H380.579ZM380.792 144.44C380.734 144.481 380.532 144.563 380.176 144.633C379.845 144.698 379.442 144.74 379.039 144.74V145.74C379.506 145.74 379.973 145.692 380.369 145.614C380.741 145.542 381.123 145.429 381.365 145.26L380.792 144.44ZM379.039 144.74C376.525 144.74 374.439 142.805 374.439 140.38H373.439C373.439 143.415 376.032 145.74 379.039 145.74V144.74ZM374.439 140.38V136.3H373.439V140.38H374.439ZM373.939 135.8H371.929V136.8H373.939V135.8ZM372.429 136.3V133H371.429V136.3H372.429ZM371.929 133.5H373.939V132.5H371.929V133.5ZM374.439 133V128.59H373.439V133H374.439ZM373.939 129.09H378.379V128.09H373.939V129.09ZM377.879 128.59V133H378.879V128.59H377.879ZM378.379 133.5H381.139V132.5H378.379V133.5ZM380.639 133V136.3H381.639V133H380.639ZM391.006 136.3V136.8H391.506V136.3H391.006ZM388.246 136.3V135.8H387.746V136.3H388.246ZM390.946 141.4H391.446V140.9H390.946V141.4ZM390.946 144.85L391.233 145.26L391.446 145.11V144.85H390.946ZM383.806 136.3H384.306V135.8H383.806V136.3ZM381.796 136.3H381.296V136.8H381.796V136.3ZM381.796 133V132.5H381.296V133H381.796ZM383.806 133V133.5H384.306V133H383.806ZM383.806 128.59V128.09H383.306V128.59H383.806ZM388.246 128.59H388.746V128.09H388.246V128.59ZM388.246 133H387.746V133.5H388.246V133ZM391.006 133H391.506V132.5H391.006V133ZM391.006 135.8H388.246V136.8H391.006V135.8ZM387.746 136.3V139.84H388.746V136.3H387.746ZM387.746 139.84C387.746 140.398 387.885 140.908 388.188 141.29C388.5 141.685 388.954 141.9 389.476 141.9V140.9C389.247 140.9 389.087 140.815 388.972 140.67C388.847 140.512 388.746 140.242 388.746 139.84H387.746ZM389.476 141.9H390.946V140.9H389.476V141.9ZM390.446 141.4V144.85H391.446V141.4H390.446ZM390.659 144.44C390.601 144.481 390.399 144.563 390.044 144.633C389.712 144.698 389.309 144.74 388.906 144.74V145.74C389.373 145.74 389.84 145.692 390.236 145.614C390.608 145.542 390.991 145.429 391.233 145.26L390.659 144.44ZM388.906 144.74C386.392 144.74 384.306 142.805 384.306 140.38H383.306C383.306 143.415 385.9 145.74 388.906 145.74V144.74ZM384.306 140.38V136.3H383.306V140.38H384.306ZM383.806 135.8H381.796V136.8H383.806V135.8ZM382.296 136.3V133H381.296V136.3H382.296ZM381.796 133.5H383.806V132.5H381.796V133.5ZM384.306 133V128.59H383.306V133H384.306ZM383.806 129.09H388.246V128.09H383.806V129.09ZM387.746 128.59V133H388.746V128.59H387.746ZM388.246 133.5H391.006V132.5H388.246V133.5ZM390.506 133V136.3H391.506V133H390.506ZM405.943 138.97L406.443 138.99L406.443 138.978L406.443 138.966L405.943 138.97ZM405.913 139.72V140.22H406.394L406.413 139.74L405.913 139.72ZM396.973 139.72V139.22H396.443L396.474 139.749L396.973 139.72ZM401.473 140.89V140.39H401.09L400.99 140.76L401.473 140.89ZM405.733 140.89L406.223 140.991L406.347 140.39H405.733V140.89ZM397.153 137.26L396.684 137.086L396.435 137.76H397.153V137.26ZM401.353 137.26V137.76H402.097L401.816 137.071L401.353 137.26ZM405.444 138.95L405.414 139.7L406.413 139.74L406.443 138.99L405.444 138.95ZM405.913 139.22H396.973V140.22H405.913V139.22ZM396.474 139.749C396.521 140.567 396.697 141.304 397.164 141.835C397.648 142.386 398.359 142.62 399.253 142.62V141.62C398.528 141.62 398.143 141.434 397.915 141.175C397.669 140.896 397.515 140.433 397.472 139.691L396.474 139.749ZM399.253 142.62C400.578 142.62 401.659 142.123 401.956 141.02L400.99 140.76C400.867 141.217 400.388 141.62 399.253 141.62V142.62ZM401.473 141.39H405.733V140.39H401.473V141.39ZM405.243 140.789C404.998 141.973 404.371 142.949 403.391 143.634C402.407 144.324 401.036 144.74 399.283 144.74V145.74C401.19 145.74 402.775 145.286 403.965 144.453C405.161 143.616 405.928 142.417 406.223 140.991L405.243 140.789ZM399.283 144.74C397.26 144.74 395.632 144.167 394.517 143.185C393.409 142.209 392.763 140.791 392.763 139H391.763C391.763 141.049 392.512 142.751 393.856 143.935C395.194 145.113 397.076 145.74 399.283 145.74V144.74ZM392.763 139C392.763 137.194 393.417 135.767 394.516 134.787C395.621 133.801 397.219 133.23 399.163 133.23V132.23C397.027 132.23 395.175 132.859 393.85 134.041C392.519 135.228 391.763 136.936 391.763 139H392.763ZM399.163 133.23C401.122 133.23 402.679 133.801 403.745 134.778C404.807 135.752 405.429 137.173 405.443 138.974L406.443 138.966C406.427 136.927 405.715 135.228 404.421 134.042C403.132 132.859 401.314 132.23 399.163 132.23V133.23ZM399.253 135.5C398.594 135.5 398.041 135.623 397.598 135.904C397.148 136.189 396.863 136.604 396.684 137.086L397.622 137.434C397.743 137.106 397.909 136.891 398.133 136.749C398.365 136.602 398.712 136.5 399.253 136.5V135.5ZM397.153 137.76H401.353V136.76H397.153V137.76ZM401.816 137.071C401.62 136.59 401.32 136.183 400.872 135.903C400.429 135.625 399.887 135.5 399.253 135.5V136.5C399.759 136.5 400.102 136.6 400.341 136.75C400.577 136.897 400.756 137.12 400.89 137.449L401.816 137.071ZM417.095 132.91H417.595V132.55L417.253 132.436L417.095 132.91ZM417.095 136.63V137.13H417.595V136.63H417.095ZM412.895 145V145.5H413.395V145H412.895ZM408.455 145H407.955V145.5H408.455V145ZM408.455 133V132.5H407.955V133H408.455ZM412.895 133H413.395V132.5H412.895V133ZM412.895 134.68H412.395V136.423L413.319 134.945L412.895 134.68ZM416.075 133.26C416.39 133.26 416.726 133.314 416.937 133.384L417.253 132.436C416.924 132.326 416.479 132.26 416.075 132.26V133.26ZM416.595 132.91V136.63H417.595V132.91H416.595ZM417.095 136.13H415.895V137.13H417.095V136.13ZM415.895 136.13C414.924 136.13 414.041 136.394 413.396 136.975C412.743 137.563 412.395 138.421 412.395 139.48H413.395C413.395 138.649 413.661 138.082 414.066 137.718C414.478 137.346 415.096 137.13 415.895 137.13V136.13ZM412.395 139.48V145H413.395V139.48H412.395ZM412.895 144.5H408.455V145.5H412.895V144.5ZM408.955 145V133H407.955V145H408.955ZM408.455 133.5H412.895V132.5H408.455V133.5ZM412.395 133V134.68H413.395V133H412.395ZM413.319 134.945C413.996 133.861 414.96 133.26 416.075 133.26V132.26C414.549 132.26 413.293 133.099 412.471 134.415L413.319 134.945Z" fill="#2C2C2C"/>
</svg>
